<svg xmlns="http://www.w3.org/2000/svg" width="1400" height="200" version="1.0"><title>TSDuck palette</title><defs><style type="text/css">.color,.name{font-family:Sans,Arial,Helvetica;font-size:30px}.name{font-size:15px}</style></defs><svg x="0" y="0"><rect width="200" height="200" x="0" y="0" fill="#2C6E49" stroke-width="0"/><text x="16" y="157" fill="#fff" class="color">2C6E49</text><text x="16" y="177" fill="#fff" class="name">Dark Spring Green</text></svg><svg x="200" y="0"><rect width="200" height="200" x="0" y="0" fill="#4C956C" stroke-width="0"/><text x="16" y="157" fill="#fff" class="color">4C956C</text><text x="16" y="177" fill="#fff" class="name">Middle Green</text></svg><svg x="400" y="0"><rect width="200" height="200" x="0" y="0" fill="#85C19F" stroke-width="0"/><text x="16" y="157" fill="#000" class="color">85C19F</text><text x="16" y="177" fill="#000" class="name">Light Green</text></svg><svg x="600" y="0"><rect width="200" height="200" x="0" y="0" fill="#FEFEE3" stroke-width="0"/><text x="16" y="157" fill="#000" class="color">FEFEE3</text><text x="16" y="177" fill="#000" class="name">Light Yellow</text></svg><svg x="800" y="0"><rect width="200" height="200" x="0" y="0" fill="#FFC9B9" stroke-width="0"/><text x="16" y="157" fill="#000" class="color">FFC9B9</text><text x="16" y="177" fill="#000" class="name">Melon</text></svg><svg x="1000" y="0"><rect width="200" height="200" x="0" y="0" fill="#D68C45" stroke-width="0"/><text x="16" y="157" fill="#000" class="color">D68C45</text><text x="16" y="177" fill="#000" class="name">Persian Orange</text></svg><svg x="1200" y="0"><rect width="200" height="200" x="0" y="0" fill="#009688" stroke-width="0"/><text x="16" y="157" fill="#fff" class="color">009688</text><text x="16" y="177" fill="#fff" class="name">Teal Green</text></svg></svg>